# xmcd
#
# Track frame offsets:
#	150
#	15077
#	37391
#	67311
#	91660
#
# Disc length: 1639 seconds
#
# Revision: 1
# Processed by: cddbd v1.5.2PL0 Copyright (c) Steve Scherf et al.
# Submitted via: audiograbber 1.83.01
#
DISCID=39066505
DTITLE=Various Artist - Miracle Mile
DYEAR=1900
DGENRE=Blues
TTITLE0=Various Artist - Sledgehownhome Blues
TTITLE1=Various Artist - Call Me The Breeze
TTITLE2=Various Artist - Where You Been So Long
TTITLE3=Various Artist - Someday My Luck Will Change
TTITLE4=Various Artist - No More Tears
EXTD=
EXTT0=
EXTT1=
EXTT2=
EXTT3=
EXTT4=
PLAYORDER=
